<svg id="Layer_1" data-name="Layer 1" xmlns="http://www.w3.org/2000/svg" viewBox="0 0 195.03 34"><title>logo</title><path d="M8.47,1.79a9.26,9.26,0,0,1,2.8.42A7.37,7.37,0,0,1,13.2,3l.6.42,1-1.37H15l.56,6.72H15.3a9.61,9.61,0,0,0-2.07-4.66A5.73,5.73,0,0,0,8.47,2,4.31,4.31,0,0,0,5.28,3.19,4,4,0,0,0,4.09,6.13a4,4,0,0,0,1.28,3,10.15,10.15,0,0,0,3.08,2q1.8.77,3.61,1.65a8.89,8.89,0,0,1,3.08,2.47,6.1,6.1,0,0,1,1.28,3.94A6.07,6.07,0,0,1,14,24.3a9.29,9.29,0,0,1-5.81,1.82A11,11,0,0,1,5,25.65a8.35,8.35,0,0,1-2.24-1l-.67-.46L1,25.6H.84L.49,18.31H.7A9.19,9.19,0,0,0,2.9,23.71a6.69,6.69,0,0,0,5.32,2.21,5.59,5.59,0,0,0,4-1.37,4.86,4.86,0,0,0,1.42-3.68A4.74,4.74,0,0,0,12.79,18a6.09,6.09,0,0,0-2.22-1.89L7.7,14.69q-1.54-.75-2.87-1.47A6.14,6.14,0,0,1,2.6,11.15,5.6,5.6,0,0,1,1.71,8,5.73,5.73,0,0,1,3.64,3.52,7,7,0,0,1,8.47,1.79Z" transform="translate(-0.49)"/><path d="M26.13,8.68A6.3,6.3,0,0,1,31.28,11a9.59,9.59,0,0,1,1.93,6.25A9.14,9.14,0,0,1,31,23.6a7.15,7.15,0,0,1-5.57,2.52,5.46,5.46,0,0,1-4.48-2.38v6.69a5.53,5.53,0,0,0,.4,2.71q.4.54,2.26.65V34H15.45v-.21q1.68-.14,2.08-.7a5.33,5.33,0,0,0,.4-2.63V13.06a3.68,3.68,0,0,0-.47-2.28,2.89,2.89,0,0,0-2.08-.53V10a11.55,11.55,0,0,0,2.36-.39Q19.13,9.31,20,9l.87-.31v2.91A5.91,5.91,0,0,1,26.13,8.68ZM25,25.84a3.9,3.9,0,0,0,3.8-2.21,14.63,14.63,0,0,0,1.1-6.37,15.36,15.36,0,0,0-1-6A3.39,3.39,0,0,0,25.57,9a4.35,4.35,0,0,0-3.33,1.44A6.43,6.43,0,0,0,20.92,15v5.67A5.93,5.93,0,0,0,22,24.54,3.68,3.68,0,0,0,25,25.84Z" transform="translate(-0.49)"/><path d="M49.21,23.85l.17,0c0,.07,0,.15-.07.24a2.57,2.57,0,0,1-.26.53,3.36,3.36,0,0,1-.51.67,3,3,0,0,1-2,.77q-2.73,0-2.94-3.22a5.28,5.28,0,0,1-2.21,2.42,6.51,6.51,0,0,1-3.29.84,6,6,0,0,1-3.71-1,3.36,3.36,0,0,1-1.33-2.84,2.69,2.69,0,0,1,1.21-2.36,14.27,14.27,0,0,1,3.83-1.59l5.43-1.58V14.08a7.17,7.17,0,0,0-.81-3.87A3.12,3.12,0,0,0,39.93,9a3,3,0,0,0-3.19,2.87q-.1.63-.18.91a5.2,5.2,0,0,1-.24.7,1.23,1.23,0,0,1-.46.6,1.3,1.3,0,0,1-.7.17,1.2,1.2,0,0,1-1-.44,1.56,1.56,0,0,1-.37-1A3.55,3.55,0,0,1,35.49,10a8.34,8.34,0,0,1,5.08-1.26q6,0,6,4.76v9.59a2.8,2.8,0,0,0,.28,1.47,1.09,1.09,0,0,0,1,.42,1.37,1.37,0,0,0,.86-.28,1.34,1.34,0,0,0,.47-.56ZM39.3,25.46a4,4,0,0,0,3-1.26,4.6,4.6,0,0,0,1.19-3.29V17l-4,1.23q-3.33,1-3.33,4.06T39.3,25.46Z" transform="translate(-0.49)"/><path d="M53.7,8.65v4.59A8.31,8.31,0,0,1,55.4,10a3.6,3.6,0,0,1,2.82-1.3,2.66,2.66,0,0,1,1.52.44,1.41,1.41,0,0,1,.65,1.24A1.57,1.57,0,0,1,60,11.43a1.15,1.15,0,0,1-.91.4,1.75,1.75,0,0,1-1.44-1q-.63-1-1.37-1-.91,0-1.65,1.56a10.87,10.87,0,0,0-.74,4.5v6a6.1,6.1,0,0,0,.4,2.85q.4.58,2.26.68v.17H48.48v-.17q1.72-.14,2.1-.74A6.13,6.13,0,0,0,51,21.92V13.06a3.79,3.79,0,0,0-.46-2.29,3,3,0,0,0-2.1-.51V10a10.52,10.52,0,0,0,2.29-.39Q52,9.31,52.86,9Z" transform="translate(-0.49)"/><path d="M64.56,5.08V9.21h4.66v.25H64.56V22q0,3.19,2.31,3.19a3.31,3.31,0,0,0,1.52-.37,3.25,3.25,0,0,0,1-.75l.32-.35.1.18a7.46,7.46,0,0,1-.51.61,6.43,6.43,0,0,1-1.47,1,4.88,4.88,0,0,1-2.4.63q-3.89,0-3.89-4V9.45H59.76V9.28a6.34,6.34,0,0,0,2.73-1.52,6.51,6.51,0,0,0,1.89-2.68Z" transform="translate(-0.49)"/><path d="M85.59,23.85l.18,0c0,.07,0,.15-.07.24a2.57,2.57,0,0,1-.26.53,3.35,3.35,0,0,1-.51.67,2.81,2.81,0,0,1-.82.53,2.84,2.84,0,0,1-1.17.24q-2.73,0-2.94-3.22a5.28,5.28,0,0,1-2.21,2.42,6.51,6.51,0,0,1-3.29.84,6,6,0,0,1-3.71-1,3.36,3.36,0,0,1-1.33-2.84,2.69,2.69,0,0,1,1.21-2.36,14.25,14.25,0,0,1,3.83-1.59l5.43-1.58V14.08a7.16,7.16,0,0,0-.81-3.87A3.12,3.12,0,0,0,76.31,9a3,3,0,0,0-3.19,2.87q-.1.63-.17.91a5.07,5.07,0,0,1-.25.7,1.23,1.23,0,0,1-.45.6,1.3,1.3,0,0,1-.7.17,1.2,1.2,0,0,1-1-.44,1.56,1.56,0,0,1-.37-1A3.55,3.55,0,0,1,71.87,10a8.33,8.33,0,0,1,5.08-1.26q6,0,6,4.76v9.59a2.79,2.79,0,0,0,.28,1.47,1.09,1.09,0,0,0,1,.42,1.37,1.37,0,0,0,.86-.28,1.34,1.34,0,0,0,.47-.56Zm-9.91,1.61a4,4,0,0,0,3-1.26,4.6,4.6,0,0,0,1.19-3.29V17l-4,1.23q-3.33,1-3.33,4.06T75.68,25.46Z" transform="translate(-0.49)"/><path d="M100.05,15H97.53v6.93A6,6,0,0,0,98,24.79q.42.59,2.28.59v.21h-9v-.17q2.13-.1,2.56-.59t.42-2.91V6q0-2.42-.44-2.91t-2.54-.6V2.31H100a12.3,12.3,0,0,1,6.78,1.59,5.11,5.11,0,0,1,2.43,4.53,5.49,5.49,0,0,1-2.63,4.78A11.46,11.46,0,0,1,100.05,15Zm0-12.47H97.53V14.74h2.35a5.28,5.28,0,0,0,4.27-1.7,6.79,6.79,0,0,0,1.44-4.53Q105.59,2.52,100,2.52Z" transform="translate(-0.49)"/><path d="M113.26,0V21.92a6.1,6.1,0,0,0,.39,2.77q.38.6,2.07.74v.17H108v-.17q1.58-.1,1.94-.68a6.49,6.49,0,0,0,.37-2.82V4.48a4.43,4.43,0,0,0-.42-2.4q-.42-.54-2.1-.54V1.4a11.1,11.1,0,0,0,2.4-.39,16.87,16.87,0,0,0,2.19-.7Z" transform="translate(-0.49)"/><path d="M130.84,23.85l.17,0c0,.07,0,.15-.07.24a2.58,2.58,0,0,1-.26.53,3.32,3.32,0,0,1-.51.67,2.79,2.79,0,0,1-.82.53,2.83,2.83,0,0,1-1.17.24q-2.73,0-2.94-3.22A5.28,5.28,0,0,1,123,25.28a6.51,6.51,0,0,1-3.29.84,6,6,0,0,1-3.71-1,3.36,3.36,0,0,1-1.33-2.84,2.69,2.69,0,0,1,1.21-2.36,14.28,14.28,0,0,1,3.83-1.59l5.43-1.58V14.08a7.16,7.16,0,0,0-.81-3.87A3.12,3.12,0,0,0,121.56,9a3,3,0,0,0-3.19,2.87q-.11.63-.18.91a5.2,5.2,0,0,1-.24.7,1.24,1.24,0,0,1-.46.6,1.3,1.3,0,0,1-.7.17,1.2,1.2,0,0,1-1-.44,1.55,1.55,0,0,1-.37-1,3.55,3.55,0,0,1,1.65-2.8,8.33,8.33,0,0,1,5.08-1.26q6,0,6,4.76v9.59a2.79,2.79,0,0,0,.28,1.47,1.08,1.08,0,0,0,1,.42,1.37,1.37,0,0,0,.86-.28,1.34,1.34,0,0,0,.47-.56Zm-9.91,1.61a4,4,0,0,0,3-1.26,4.6,4.6,0,0,0,1.19-3.29V17l-4,1.23q-3.33,1-3.33,4.06T120.93,25.46Z" transform="translate(-0.49)"/><path d="M138.59,25.67a5.41,5.41,0,0,0,3.4-1,5.54,5.54,0,0,0,1.82-2.29H144A6.2,6.2,0,0,1,142,25a6.29,6.29,0,0,1-4,1.16,7.82,7.82,0,0,1-5.94-2.33,8.63,8.63,0,0,1-2.22-6.22,9.29,9.29,0,0,1,2.24-6.32,7.09,7.09,0,0,1,5.57-2.57,6.19,6.19,0,0,1,4.66,1.77,7.28,7.28,0,0,1,1.82,5H133.23q-.07,1.33-.07,2.14Q133.16,25.67,138.59,25.67Zm-.95-16.81q-3.85,0-4.38,6.34h7.42a6,6,0,0,0,.32-2.1Q141,8.86,137.65,8.86Z" transform="translate(-0.49)"/><path d="M149.53,8.68a7.81,7.81,0,0,1,2,.26,6.2,6.2,0,0,1,1.4.51l.46.25.73-.63h.14l.42,4.31h-.21A6.07,6.07,0,0,0,153,10.21a4.23,4.23,0,0,0-3.31-1.38h-.14a3.52,3.52,0,0,0-2.31.77,2.73,2.73,0,0,0-.84,2.17,2.84,2.84,0,0,0,.93,2.12,7.89,7.89,0,0,0,2.24,1.49q1.31.6,2.64,1.26a6.71,6.71,0,0,1,2.26,1.82,4.28,4.28,0,0,1,.93,2.77,4.59,4.59,0,0,1-1.51,3.59A5.56,5.56,0,0,1,150,26.16a8.53,8.53,0,0,1-3.92-1.05l-.53-.31L144.66,26h-.14l-.35-5.11h.21a8.31,8.31,0,0,0,2,3.59A4.79,4.79,0,0,0,150,26a3.77,3.77,0,0,0,2.57-.79,2.85,2.85,0,0,0,.89-2.26,2.74,2.74,0,0,0-.91-2,8.22,8.22,0,0,0-2.21-1.49q-1.29-.61-2.59-1.31a6.75,6.75,0,0,1-2.21-1.91,4.6,4.6,0,0,1-.91-2.85A4.34,4.34,0,0,1,146.08,10,4.93,4.93,0,0,1,149.53,8.68Z" transform="translate(-0.49)"/><path d="M164.24,25.67a5.41,5.41,0,0,0,3.4-1,5.53,5.53,0,0,0,1.82-2.29h.21a6.18,6.18,0,0,1-2,2.59,6.3,6.3,0,0,1-4,1.16,7.82,7.82,0,0,1-5.93-2.33,8.62,8.62,0,0,1-2.22-6.22,9.29,9.29,0,0,1,2.24-6.32,7.08,7.08,0,0,1,5.57-2.57A6.19,6.19,0,0,1,168,10.45a7.28,7.28,0,0,1,1.82,5H158.88q-.07,1.33-.07,2.14Q158.81,25.67,164.24,25.67Zm-.95-16.81q-3.85,0-4.38,6.34h7.42a6,6,0,0,0,.31-2.1Q166.65,8.86,163.29,8.86Z" transform="translate(-0.49)"/><path d="M185,21.92a6.12,6.12,0,0,0,.38,2.77q.39.6,2.1.74v.17h-7.74v-.17q1.57-.1,1.93-.68a6.79,6.79,0,0,0,.35-2.82V14.64a7.71,7.71,0,0,0-.81-4,2.86,2.86,0,0,0-2.59-1.24,4.15,4.15,0,0,0-3,1.26,4.83,4.83,0,0,0-1.26,3.57v7.74a6.12,6.12,0,0,0,.38,2.77q.39.6,2.07.74v.17H169v-.17q1.57-.1,1.94-.68a6.49,6.49,0,0,0,.37-2.82V13.2a3.94,3.94,0,0,0-.47-2.35,2.76,2.76,0,0,0-2.08-.56v-.21a11.55,11.55,0,0,0,2.36-.38,20.6,20.6,0,0,0,2.29-.7l.87-.31v3.26A6.07,6.07,0,0,1,180,8.68a5.2,5.2,0,0,1,3.75,1.24,4.84,4.84,0,0,1,1.3,3.66Z" transform="translate(-0.49)"/><path d="M190.23,5.08V9.21h4.66v.25h-4.66V22q0,3.19,2.31,3.19a3.31,3.31,0,0,0,1.52-.37,3.25,3.25,0,0,0,1-.75l.32-.35.11.18a7.41,7.41,0,0,1-.51.61,6.47,6.47,0,0,1-1.47,1,4.88,4.88,0,0,1-2.4.63q-3.89,0-3.89-4V9.45h-1.82V9.28a6.34,6.34,0,0,0,2.73-1.52,6.5,6.5,0,0,0,1.89-2.68Z" transform="translate(-0.49)"/></svg>